{
    "accessors": [
        {
            "bufferView": 0,
            "byteOffset": 0,
            "componentType": 5126,
            "count": 64185,
            "max": [
                2.0095343589782715,
                2.724853038787842,
                5.922248840332031
            ],
            "min": [
                -2.009465456008911,
                -3.2491471767425537,
                -9.800803184509277
            ],
            "name": "accessor_buffer_Untitled_POSITION_0",
            "type": "VEC3"
        },
        {
            "bufferView": 4,
            "byteOffset": 0,
            "componentType": 5123,
            "count": 61305,
            "max": [
                64184
            ],
            "min": [
                0
            ],
            "name": "accessor_buffer_Untitled_0",
            "type": "SCALAR"
        },
        {
            "bufferView": 2,
            "byteOffset": 0,
            "componentType": 5126,
            "count": 64185,
            "max": [
                0.9999015927314758,
                0.9999015393987065
            ],
            "min": [
                9.846060129348189e-05,
                9.846687316894531e-05
            ],
            "name": "accessor_buffer_Untitled_TEXCOORD_0_0",
            "type": "VEC2"
        },
        {
            "bufferView": 6,
            "byteOffset": 0,
            "componentType": 5123,
            "count": 1440,
            "max": [
                64127
            ],
            "min": [
                19
            ],
            "name": "accessor_buffer_Untitled_2",
            "type": "SCALAR"
        },
        {
            "bufferView": 5,
            "byteOffset": 0,
            "componentType": 5123,
            "count": 1440,
            "max": [
                64123
            ],
            "min": [
                33
            ],
            "name": "accessor_buffer_Untitled_1",
            "type": "SCALAR"
        },
        {
            "bufferView": 1,
            "byteOffset": 0,
            "componentType": 5126,
            "count": 64185,
            "max": [
                0.9998767375946045,
                0.9999976754188538,
                0.9997218251228333
            ],
            "min": [
                -0.9999540448188782,
                -0.9999929666519165,
                -0.9990505576133728
            ],
            "name": "accessor_buffer_Untitled_NORMAL_0",
            "type": "VEC3"
        },
        {
            "bufferView": 3,
            "byteOffset": 0,
            "componentType": 5126,
            "count": 64185,
            "max": [
                1.0,
                1.0,
                1.0
            ],
            "min": [
                1.0,
                1.0,
                1.0
            ],
            "name": "accessor_buffer_Untitled_COLOR_0_0",
            "type": "VEC3"
        }
    ],
    "asset": {
        "copyright": "",
        "generator": "blendergltf v1.2.0",
        "version": "2.0"
    },
    "bufferViews": [
        {
            "buffer": 0,
            "byteLength": 770220,
            "byteOffset": 0,
            "byteStride": 12,
            "name": "bufferView_buffer_Untitled_POSITION_0",
            "target": 34962
        },
        {
            "buffer": 0,
            "byteLength": 770220,
            "byteOffset": 770220,
            "byteStride": 12,
            "name": "bufferView_buffer_Untitled_NORMAL_0",
            "target": 34962
        },
        {
            "buffer": 0,
            "byteLength": 513480,
            "byteOffset": 1540440,
            "byteStride": 8,
            "name": "bufferView_buffer_Untitled_TEXCOORD_0_0",
            "target": 34962
        },
        {
            "buffer": 0,
            "byteLength": 770220,
            "byteOffset": 2053920,
            "byteStride": 12,
            "name": "bufferView_buffer_Untitled_COLOR_0_0",
            "target": 34962
        },
        {
            "buffer": 0,
            "byteLength": 122612,
            "byteOffset": 2824140,
            "name": "bufferView_buffer_Untitled_0",
            "target": 34963
        },
        {
            "buffer": 0,
            "byteLength": 2884,
            "byteOffset": 2946752,
            "name": "bufferView_buffer_Untitled_1",
            "target": 34963
        },
        {
            "buffer": 0,
            "byteLength": 2884,
            "byteOffset": 2949636,
            "name": "bufferView_buffer_Untitled_2",
            "target": 34963
        }
    ],
    "buffers": [
        {
            "byteLength": 2952520,
            "name": "buffer_triceratops",
            "uri": "buffer_triceratops.bin"
        }
    ],
    "images": [
        {
            "name": "Map #1",
            "uri": "Triceratops_body_BaseColor2K.png"
        },
        {
            "name": "Map #5",
            "uri": "Triceratops_Eyes_BaseColor2k.png"
        }
    ],
    "materials": [
        {
            "alphaMode": "OPAQUE",
            "doubleSided": false,
            "emissiveFactor": [
                0.0,
                0.0,
                0.0
            ],
            "name": "Material.001",
            "pbrMetallicRoughness": {
                "baseColorFactor": [
                    0.64000004529953,
                    0.64000004529953,
                    0.64000004529953,
                    1.0
                ],
                "baseColorTexture": {
                    "index": 0,
                    "texCoord": 0
                },
                "metallicFactor": 0.0,
                "roughnessFactor": 1.0
            }
        },
        {
            "alphaMode": "OPAQUE",
            "doubleSided": false,
            "emissiveFactor": [
                0.0,
                0.0,
                0.0
            ],
            "name": "Material.002",
            "pbrMetallicRoughness": {
                "baseColorFactor": [
                    0.64000004529953,
                    0.64000004529953,
                    0.64000004529953,
                    1.0
                ],
                "metallicFactor": 0.0,
                "roughnessFactor": 1.0
            }
        },
        {
            "alphaMode": "OPAQUE",
            "doubleSided": false,
            "emissiveFactor": [
                0.0,
                0.0,
                0.0
            ],
            "name": "Material.003",
            "pbrMetallicRoughness": {
                "baseColorFactor": [
                    0.64000004529953,
                    0.64000004529953,
                    0.64000004529953,
                    1.0
                ],
                "baseColorTexture": {
                    "index": 1,
                    "texCoord": 0
                },
                "metallicFactor": 0.0,
                "roughnessFactor": 1.0
            }
        }
    ],
    "meshes": [
        {
            "name": "Untitled",
            "primitives": [
                {
                    "attributes": {
                        "COLOR_0": 6,
                        "NORMAL": 5,
                        "POSITION": 0,
                        "TEXCOORD_0": 2
                    },
                    "indices": 1,
                    "material": 0,
                    "mode": 4
                },
                {
                    "attributes": {
                        "COLOR_0": 6,
                        "NORMAL": 5,
                        "POSITION": 0,
                        "TEXCOORD_0": 2
                    },
                    "indices": 4,
                    "material": 2,
                    "mode": 4
                },
                {
                    "attributes": {
                        "COLOR_0": 6,
                        "NORMAL": 5,
                        "POSITION": 0,
                        "TEXCOORD_0": 2
                    },
                    "indices": 3,
                    "material": 1,
                    "mode": 4
                }
            ]
        }
    ],
    "nodes": [
        {
            "extras": {
                "MapChannel:1": "Default",
                "MaxHandle": 2
            },
            "mesh": 0,
            "name": "Triceratops",
            "rotation": [
                2.1855695919725804e-08,
                3.42765282432376e-18,
                7.491372596707838e-26,
                1.0
            ],
            "scale": [
                1.1466176509857178,
                1.1466176509857178,
                1.1466176509857178
            ],
            "translation": [
                0.041585810482501984,
                3.750511646270752,
                -0.2873736619949341
            ]
        }
    ],
    "samplers": [
        {
            "magFilter": 9729,
            "minFilter": 9987,
            "name": "Map #1",
            "wrapS": 10497,
            "wrapT": 10497
        },
        {
            "magFilter": 9729,
            "minFilter": 9987,
            "name": "Map #5",
            "wrapS": 10497,
            "wrapT": 10497
        }
    ],
    "scene": 0,
    "scenes": [
        {
            "extras": {
                "background_color": [
                    0.05087608844041824,
                    0.05087608844041824,
                    0.05087608844041824
                ],
                "frames_per_second": 30
            },
            "name": "Scene",
            "nodes": [
                0
            ]
        }
    ],
    "textures": [
        {
            "name": "Map #1",
            "sampler": 0,
            "source": 0
        },
        {
            "name": "Map #5",
            "sampler": 1,
            "source": 1
        }
    ]
}
