{
  "accessors": [
    {
      "bufferView": 2,
      "componentType": 5126,
      "count": 41381,
      "max": [
        2.5321221351623535,
        -2.249807596206665,
        2.2605304718017578
      ],
      "min": [
        -2.1695284843444824,
        -7.4125633239746094,
        -1.9039486646652222
      ],
      "type": "VEC3"
    },
    {
      "bufferView": 2,
      "byteOffset": 496572,
      "componentType": 5126,
      "count": 41381,
      "max": [
        0.9997597336769104,
        0.99999433755874634,
        0.99991178512573242
      ],
      "min": [
        -0.99998730421066284,
        -0.99998015165328979,
        -0.99992018938064575
      ],
      "type": "VEC3"
    },
    {
      "bufferView": 3,
      "componentType": 5126,
      "count": 41381,
      "max": [
        0.99983358383178711,
        0.99996340274810791,
        0.99996685981750488,
        1
      ],
      "min": [
        -0.99988311529159546,
        -0.99978876113891602,
        -0.99989461898803711,
        -1
      ],
      "type": "VEC4"
    },
    {
      "bufferView": 1,
      "componentType": 5126,
      "count": 41381,
      "max": [
        0.99440330266952515,
        0.99941545724868774
      ],
      "min": [
        0.00390625,
        0.0037857398856431246
      ],
      "type": "VEC2"
    },
    {
      "bufferView": 0,
      "componentType": 5125,
      "count": 210972,
      "max": [
        41380
      ],
      "min": [
        0
      ],
      "type": "SCALAR"
    }
  ],
  "asset": {
    "extras": {
      "author": "Thomas Flynn (https://sketchfab.com/nebulousflynn)",
      "license": "CC-BY-4.0 (http://creativecommons.org/licenses/by/4.0/)",
      "source": "https://sketchfab.com/models/209bffe6866042379a704ce46bb6e632",
      "title": "Triceratops Horridus, Nat. Hist. Museum, Oxford"
    },
    "generator": "Sketchfab-3.19.6",
    "version": "2.0"
  },
  "bufferViews": [
    {
      "buffer": 0,
      "byteLength": 843888,
      "byteOffset": 0,
      "name": "floatBufferViews",
      "target": 34963
    },
    {
      "buffer": 0,
      "byteLength": 331048,
      "byteOffset": 843888,
      "byteStride": 8,
      "name": "floatBufferViews",
      "target": 34962
    },
    {
      "buffer": 0,
      "byteLength": 993144,
      "byteOffset": 1174936,
      "byteStride": 12,
      "name": "floatBufferViews",
      "target": 34962
    },
    {
      "buffer": 0,
      "byteLength": 662096,
      "byteOffset": 2168080,
      "byteStride": 16,
      "name": "floatBufferViews",
      "target": 34962
    }
  ],
  "buffers": [
    {
      "byteLength": 2830176,
      "uri": "scene.bin"
    }
  ],
  "images": [
    {
      "uri": "textures/material_0_baseColor.jpg"
    },
    {
      "uri": "textures/material_0_metallicRoughness.png"
    }
  ],
  "materials": [
    {
      "doubleSided": true,
      "emissiveFactor": [
        0,
        0,
        0
      ],
      "name": "material_0",
      "pbrMetallicRoughness": {
        "baseColorFactor": [
          1,
          1,
          1,
          1
        ],
        "baseColorTexture": {
          "index": 0,
          "texCoord": 0
        },
        "metallicFactor": 1,
        "metallicRoughnessTexture": {
          "index": 1,
          "texCoord": 0
        },
        "roughnessFactor": 1
      }
    }
  ],
  "meshes": [
    {
      "primitives": [
        {
          "attributes": {
            "NORMAL": 1,
            "POSITION": 0,
            "TANGENT": 2,
            "TEXCOORD_0": 3
          },
          "indices": 4,
          "material": 0,
          "mode": 4
        }
      ]
    }
  ],
  "nodes": [
    {
      "children": [
        1
      ],
      "name": "RootNode (gltf orientation matrix)",
      "rotation": [
        -0.70710678118654746,
        -0,
        -0,
        0.70710678118654757
      ]
    },
    {
      "children": [
        2
      ],
      "matrix": [
        0.99112790822982788,
        0.02578207291662693,
        -0.13038715720176697,
        0,
        0.057144880294799805,
        -0.96836602687835693,
        0.24290277063846588,
        0,
        -0.1199999526143074,
        -0.24819865822792053,
        -0.96124786138534546,
        0,
        0.29908040165901184,
        -9.4699544906616211,
        1.546815037727356,
        1
      ],
      "name": "RootNode (model correction matrix)"
    },
    {
      "children": [
        3
      ],
      "name": "triceratops.obj.cleaner.gles"
    },
    {
      "mesh": 0,
      "name": ""
    }
  ],
  "samplers": [
    {
      "magFilter": 9729,
      "minFilter": 9987,
      "wrapS": 10497,
      "wrapT": 10497
    }
  ],
  "scene": 0,
  "scenes": [
    {
      "name": "OSG_Scene",
      "nodes": [
        0
      ]
    }
  ],
  "textures": [
    {
      "sampler": 0,
      "source": 0
    },
    {
      "sampler": 0,
      "source": 1
    }
  ]
}

